<svg width="98" height="52" viewBox="0 0 98 52" fill="none" xmlns="http://www.w3.org/2000/svg" image-rendering="optimizeQuality"> 

<g id="Cymbal Shops"> 

<path id="Vector" d="M10.4421 20.6515C4.68001 20.6515 0 16.1408 0 10.2986C0 4.45638 4.62591 0 10.388 0C13.9589 0 17.124 1.65756 19.0988 4.67376C19.748 5.65199 20.262 6.76609 20.4243 7.93453H15.1221C14.3376 5.89655 12.5522 4.45638 10.3339 4.45638C7.1147 4.45638 5.03168 7.20086 5.03168 10.2714C5.03168 13.342 7.1147 16.1951 10.3609 16.1951C12.5792 16.1951 14.2294 14.8093 15.1221 12.8257H20.4243C19.2881 17.5538 15.2303 20.6515 10.4421 20.6515Z" fill="#4E3A76"/> 

<path id="Vector_2" d="M56.4846 12.1463V20.2982H52.048V12.3636C52.048 10.7333 51.8316 9.04853 49.7756 9.04853C47.8008 9.04853 47.3139 10.4344 47.3139 12.1463V20.2982H42.8774V12.1734C42.8774 10.6517 42.5257 9.04853 40.6591 9.04853C38.6031 9.04853 38.1433 10.5974 38.1433 12.3636V20.2982H33.7067V10.8419L23.8057 25.2708H18.5846L21.5333 21.0047V5.38016H25.9698V14.4288H26.1051L32.2189 5.38016H37.8457V6.9562H37.8998C38.7655 5.43451 40.3074 4.86388 41.9846 4.86388C43.9053 4.86388 45.3662 5.84211 46.2589 7.52684C47.341 5.84211 48.9641 4.86388 50.9659 4.86388C52.4267 4.86388 53.8335 5.29865 54.8614 6.35839C56.5657 8.09747 56.4846 9.86372 56.4846 12.1463Z" fill="#4E3A76"/> 

<path id="Vector_3" d="M66.9537 20.7851C65.4388 20.7851 63.464 20.133 62.7065 18.6928H62.6524V20.2688H58.4052V0.405323H62.8418V6.54643C64.005 5.32365 65.4929 4.8617 67.143 4.8617C68.2251 4.8617 69.2802 5.13343 70.2811 5.59538C73.1486 6.92686 74.4471 9.64416 74.4471 12.7419C74.4471 17.2254 71.5796 20.7851 66.9537 20.7851ZM66.3856 9.01918C64.2755 9.01918 62.7065 10.6767 62.7065 12.7691C62.7065 14.8886 64.1403 16.6005 66.3044 16.6005C68.4415 16.6005 70.0106 14.9157 70.0106 12.7962C70.0106 10.7583 68.4686 9.01918 66.3856 9.01918Z" fill="#4E3A76"/> 

<path id="Vector_4" d="M86.918 20.2734V18.6701H86.864C86.0524 20.1918 84.1317 20.7896 82.5356 20.7896C77.9638 20.7896 75.0692 17.23 75.0692 12.8008C75.0692 8.45308 78.072 4.83906 82.5356 4.83906C84.1587 4.83906 85.9983 5.46404 86.864 6.93139H86.918V5.35535H91.3546V20.2734H86.918ZM83.1849 9.02371C81.0207 9.02371 79.5328 10.7356 79.5328 12.8551C79.5328 14.9203 81.1289 16.605 83.2119 16.605C85.3761 16.605 86.918 14.9474 86.918 12.8008C86.918 10.6541 85.349 9.02371 83.1849 9.02371Z" fill="#4E3A76"/> 

<path id="Vector_5" d="M93.4378 20.2688V0.405323H97.8743V20.296H93.4378V20.2688Z" fill="#4E3A76"/> 

<path id="Vector_6" d="M7.84527 47.3783C3.84157 47.3783 0.676479 45.3132 0.676479 41.047V40.3949H5.73521C5.73521 41.6992 6.33036 43.1122 7.79117 43.1122C8.8462 43.1122 9.71186 42.2698 9.71186 41.21C9.71186 39.9057 8.62978 39.4981 7.6018 39.0362C7.00666 38.7645 6.41151 38.5199 5.84342 38.2754C3.27347 37.1884 1.0011 35.6939 1.0011 32.569C1.0011 28.8463 4.57197 26.6996 7.95348 26.6996C9.87418 26.6996 12.0654 27.4333 13.3098 28.955C14.3378 30.2321 14.5812 31.3191 14.6353 32.8951H9.63071C9.4684 31.781 9.08967 30.9658 7.81822 30.9658C6.9255 30.9658 6.08689 31.5908 6.08689 32.5418C6.08689 32.8407 6.11394 33.1396 6.27625 33.3842C6.76319 34.1994 9.36019 35.2048 10.1988 35.5852C12.8229 36.808 14.8518 38.1667 14.8518 41.2916C14.7706 45.449 11.7678 47.3783 7.84527 47.3783Z" fill="#4E3A76"/> 

<path id="Vector_7" d="M25.5643 47.0024V38.8777C25.5643 37.2473 25.1044 35.7528 23.1837 35.7528C21.263 35.7528 20.6949 37.0299 20.6949 38.7146V47.0024H16.2313V27.0574H20.6949V33.4159H20.749C21.5335 32.0029 23.0755 31.5409 24.5904 31.5409C26.0512 31.5409 27.6743 32.0572 28.6482 33.1713C30.082 34.8017 30.0549 36.5951 30.0549 38.6331V46.9752H25.5643V47.0024Z" fill="#4E3A76"/> 

<path id="Vector_8" d="M39.2527 47.4621C34.6809 47.4621 31.2182 44.0926 31.2182 39.5004C31.2182 34.9082 34.6809 31.5387 39.2527 31.5387C43.8245 31.5387 47.2871 34.9082 47.2871 39.5004C47.2871 44.0926 43.8245 47.4621 39.2527 47.4621ZM39.2527 35.7505C37.1967 35.7505 35.6818 37.4896 35.6818 39.5276C35.6818 41.5656 37.1967 43.3046 39.2527 43.3046C41.3086 43.3046 42.8235 41.5656 42.8235 39.5276C42.8235 37.4896 41.3357 35.7505 39.2527 35.7505Z" fill="#4E3A76"/> 

<path id="Vector_9" d="M57.5396 47.5164C55.7812 47.5164 54.2663 46.973 53.0489 45.6687V52H48.5853V32.055H52.8055V33.6854H52.8325H52.8866C54.0499 32.218 55.7 31.5387 57.5396 31.5387C62.1655 31.5387 64.8166 35.3429 64.8166 39.6634C64.7895 43.8481 61.895 47.5164 57.5396 47.5164ZM56.6198 35.7233C54.4827 35.7233 52.8866 37.4081 52.8866 39.5547C52.8866 41.6471 54.4827 43.359 56.6198 43.359C58.7299 43.359 60.353 41.6742 60.353 39.5547C60.3259 37.4081 58.7569 35.7233 56.6198 35.7233Z" fill="#4E3A76"/> 

<path id="Vector_10" d="M71.3093 47.5162C68.1983 47.5162 65.6013 45.8586 65.2496 42.5707H69.6861C69.8214 43.4945 70.4977 43.9565 71.3634 43.9565C72.0397 43.9565 72.9324 43.5761 72.9324 42.788C72.9324 41.7011 71.715 41.3751 70.9305 41.0761C70.2813 40.8588 69.632 40.6414 69.0098 40.3968C67.2515 39.7447 65.466 38.6034 65.466 36.4839C65.466 33.359 68.3606 31.5656 71.2281 31.5656C74.2038 31.5656 76.6385 33.1144 76.9361 36.2937H72.5537C72.5266 35.4513 71.9315 35.1524 71.147 35.1524C70.5518 35.1524 69.8755 35.4785 69.8755 36.1578C69.8755 38.4947 77.3689 37.1904 77.3689 42.462C77.3689 45.8043 74.3391 47.5162 71.3093 47.5162Z" fill="#4E3A76"/> 

</g> 

</svg> 